<mxfile host="app.diagrams.net" modified="2022-12-22T01:31:24.088Z" agent="5.0 (Macintosh; Intel Mac OS X 10_15_7) AppleWebKit/605.1.15 (KHTML, like Gecko) Version/16.1 Safari/605.1.15" etag="wHaoTg_sxiEtdQLFYVgm" version="20.7.4" type="github">
  <diagram id="ODRuLJG-FTR8Z9jfNzTU" name="페이지-1">
    <mxGraphModel dx="997" dy="691" grid="1" gridSize="10" guides="1" tooltips="1" connect="1" arrows="1" fold="1" page="1" pageScale="1" pageWidth="827" pageHeight="1169" math="0" shadow="0">
      <root>
        <mxCell id="0" />
        <mxCell id="1" parent="0" />
        <mxCell id="IalLhhhOg0ON9oHgMH46-20" value="" style="edgeStyle=orthogonalEdgeStyle;rounded=0;orthogonalLoop=1;jettySize=auto;html=1;" edge="1" parent="1" source="vhxO1wQ4poon8BNvWaCX-2" target="IPJRWTNwaBaDau8ooBzF-3">
          <mxGeometry relative="1" as="geometry" />
        </mxCell>
        <mxCell id="vhxO1wQ4poon8BNvWaCX-2" value="입력 포맷 확인" style="rhombus;whiteSpace=wrap;html=1;" parent="1" vertex="1">
          <mxGeometry x="349" y="220" width="130" height="70" as="geometry" />
        </mxCell>
        <mxCell id="vhxO1wQ4poon8BNvWaCX-20" value="" style="endArrow=classic;html=1;rounded=0;exitX=1;exitY=0.5;exitDx=0;exitDy=0;" parent="1" edge="1" target="IalLhhhOg0ON9oHgMH46-1" source="vhxO1wQ4poon8BNvWaCX-2">
          <mxGeometry width="50" height="50" relative="1" as="geometry">
            <mxPoint x="460" y="259.5" as="sourcePoint" />
            <mxPoint x="600" y="560" as="targetPoint" />
            <Array as="points">
              <mxPoint x="600" y="255" />
            </Array>
          </mxGeometry>
        </mxCell>
        <mxCell id="IalLhhhOg0ON9oHgMH46-17" value="" style="edgeStyle=orthogonalEdgeStyle;rounded=0;orthogonalLoop=1;jettySize=auto;html=1;" edge="1" parent="1" source="IPJRWTNwaBaDau8ooBzF-1" target="IPJRWTNwaBaDau8ooBzF-2">
          <mxGeometry relative="1" as="geometry" />
        </mxCell>
        <mxCell id="IPJRWTNwaBaDau8ooBzF-1" value="시작&lt;br&gt;(사용자 입력)" style="ellipse;whiteSpace=wrap;html=1;flipV=1;" parent="1" vertex="1">
          <mxGeometry x="354" y="40" width="120" height="60" as="geometry" />
        </mxCell>
        <mxCell id="IalLhhhOg0ON9oHgMH46-18" value="" style="edgeStyle=orthogonalEdgeStyle;rounded=0;orthogonalLoop=1;jettySize=auto;html=1;" edge="1" parent="1" source="IPJRWTNwaBaDau8ooBzF-2" target="vhxO1wQ4poon8BNvWaCX-2">
          <mxGeometry relative="1" as="geometry" />
        </mxCell>
        <mxCell id="IPJRWTNwaBaDau8ooBzF-2" value="입력 공백 제거" style="rounded=0;whiteSpace=wrap;html=1;" parent="1" vertex="1">
          <mxGeometry x="354" y="125" width="120" height="60" as="geometry" />
        </mxCell>
        <mxCell id="IalLhhhOg0ON9oHgMH46-21" value="" style="edgeStyle=orthogonalEdgeStyle;rounded=0;orthogonalLoop=1;jettySize=auto;html=1;" edge="1" parent="1" source="IPJRWTNwaBaDau8ooBzF-3" target="IPJRWTNwaBaDau8ooBzF-4">
          <mxGeometry relative="1" as="geometry" />
        </mxCell>
        <mxCell id="IPJRWTNwaBaDau8ooBzF-3" value="이름 확인" style="rhombus;whiteSpace=wrap;html=1;" parent="1" vertex="1">
          <mxGeometry x="354" y="330" width="120" height="60" as="geometry" />
        </mxCell>
        <mxCell id="IalLhhhOg0ON9oHgMH46-22" value="" style="edgeStyle=orthogonalEdgeStyle;rounded=0;orthogonalLoop=1;jettySize=auto;html=1;" edge="1" parent="1" source="IPJRWTNwaBaDau8ooBzF-4" target="IPJRWTNwaBaDau8ooBzF-5">
          <mxGeometry relative="1" as="geometry" />
        </mxCell>
        <mxCell id="IPJRWTNwaBaDau8ooBzF-4" value="나이 확인" style="rhombus;whiteSpace=wrap;html=1;" parent="1" vertex="1">
          <mxGeometry x="354" y="420" width="120" height="60" as="geometry" />
        </mxCell>
        <mxCell id="IalLhhhOg0ON9oHgMH46-7" value="" style="edgeStyle=orthogonalEdgeStyle;rounded=0;orthogonalLoop=1;jettySize=auto;html=1;" edge="1" parent="1" source="IPJRWTNwaBaDau8ooBzF-5" target="IalLhhhOg0ON9oHgMH46-1">
          <mxGeometry relative="1" as="geometry" />
        </mxCell>
        <mxCell id="IalLhhhOg0ON9oHgMH46-23" value="" style="edgeStyle=orthogonalEdgeStyle;rounded=0;orthogonalLoop=1;jettySize=auto;html=1;" edge="1" parent="1" source="IPJRWTNwaBaDau8ooBzF-5" target="IalLhhhOg0ON9oHgMH46-4">
          <mxGeometry relative="1" as="geometry" />
        </mxCell>
        <mxCell id="IPJRWTNwaBaDau8ooBzF-5" value="전화번호 확인" style="rhombus;whiteSpace=wrap;html=1;" parent="1" vertex="1">
          <mxGeometry x="354" y="510" width="120" height="70" as="geometry" />
        </mxCell>
        <mxCell id="IalLhhhOg0ON9oHgMH46-1" value="에러 메시지 출력" style="rounded=0;whiteSpace=wrap;html=1;" vertex="1" parent="1">
          <mxGeometry x="540" y="515" width="120" height="60" as="geometry" />
        </mxCell>
        <mxCell id="IalLhhhOg0ON9oHgMH46-3" value="" style="endArrow=classic;html=1;rounded=0;exitX=0.5;exitY=1;exitDx=0;exitDy=0;entryX=1;entryY=0.5;entryDx=0;entryDy=0;entryPerimeter=0;" edge="1" parent="1" source="IalLhhhOg0ON9oHgMH46-1" target="IalLhhhOg0ON9oHgMH46-4">
          <mxGeometry width="50" height="50" relative="1" as="geometry">
            <mxPoint x="600" y="660" as="sourcePoint" />
            <mxPoint x="480" y="720" as="targetPoint" />
            <Array as="points">
              <mxPoint x="600" y="640" />
            </Array>
          </mxGeometry>
        </mxCell>
        <mxCell id="IalLhhhOg0ON9oHgMH46-4" value="종료" style="ellipse;whiteSpace=wrap;html=1;flipV=1;" vertex="1" parent="1">
          <mxGeometry x="354" y="610" width="120" height="60" as="geometry" />
        </mxCell>
        <mxCell id="IalLhhhOg0ON9oHgMH46-13" value="" style="endArrow=none;html=1;rounded=0;entryX=1;entryY=0.5;entryDx=0;entryDy=0;" edge="1" parent="1" target="IPJRWTNwaBaDau8ooBzF-3">
          <mxGeometry width="50" height="50" relative="1" as="geometry">
            <mxPoint x="600" y="360" as="sourcePoint" />
            <mxPoint x="440" y="410" as="targetPoint" />
          </mxGeometry>
        </mxCell>
        <mxCell id="IalLhhhOg0ON9oHgMH46-14" value="" style="endArrow=none;html=1;rounded=0;entryX=1;entryY=0.5;entryDx=0;entryDy=0;" edge="1" parent="1" target="IPJRWTNwaBaDau8ooBzF-4">
          <mxGeometry width="50" height="50" relative="1" as="geometry">
            <mxPoint x="600" y="450" as="sourcePoint" />
            <mxPoint x="440" y="410" as="targetPoint" />
          </mxGeometry>
        </mxCell>
      </root>
    </mxGraphModel>
  </diagram>
</mxfile>
